<svg width="1200" height="900" viewBox="0 0 1200 900" fill="none" xmlns="http://www.w3.org/2000/svg">
  <rect width="1200" height="900" fill="#FAF3EA"/>
  <rect x="80" y="70" width="1040" height="760" rx="40" fill="#FFFDFC" stroke="#E0D0C2"/>
  <text x="120" y="125" fill="#8D6B49" font-size="22" font-family="Arial" letter-spacing="6">BOUTIQUE ATELIER</text>
  <rect x="120" y="160" width="420" height="280" rx="30" fill="#F0E4D8"/>
  <text x="160" y="270" fill="#2F2A25" font-size="72" font-family="Georgia">Softer</text>
  <text x="160" y="340" fill="#2F2A25" font-size="72" font-family="Georgia">Luxury</text>
  <rect x="580" y="160" width="500" height="280" rx="30" fill="#F7EFE6"/>
  <circle cx="830" cy="300" r="100" fill="#C49A6C" fill-opacity="0.28"/>
  <rect x="120" y="490" width="300" height="260" rx="26" fill="#F8F3EC" stroke="#E0D0C2"/>
  <rect x="450" y="490" width="300" height="260" rx="26" fill="#F8F3EC" stroke="#E0D0C2"/>
  <rect x="780" y="490" width="300" height="260" rx="26" fill="#F8F3EC" stroke="#E0D0C2"/>
  <circle cx="270" cy="600" r="46" fill="#C58F56"/>
  <circle cx="270" cy="600" r="20" fill="#F9E5C8"/>
  <path d="M580 640C620 565 664 565 664 640" stroke="#C58F56" stroke-width="18" stroke-linecap="round"/>
  <rect x="900" y="560" width="60" height="90" rx="30" fill="#C58F56"/>
</svg>