<svg width="1200" height="900" viewBox="0 0 1200 900" fill="none" xmlns="http://www.w3.org/2000/svg">
  <rect width="1200" height="900" fill="#F7F1EA"/>
  <rect x="60" y="50" width="1080" height="70" rx="35" fill="#FFF9F4" stroke="#DCCAB7"/>
  <text x="100" y="94" fill="#3B2A1C" font-size="28" font-family="Georgia">Sense of Jewels</text>
  <rect x="90" y="160" width="1020" height="300" rx="36" fill="#24434A"/>
  <circle cx="900" cy="275" r="110" fill="#D9B37C" fill-opacity="0.18"/>
  <text x="135" y="260" fill="#F8F2EB" font-size="74" font-family="Georgia">Handcrafted</text>
  <text x="135" y="335" fill="#F8F2EB" font-size="74" font-family="Georgia">Balinese Jewelry</text>
  <rect x="135" y="372" width="200" height="54" rx="27" fill="#D5A96E"/>
  <text x="183" y="406" fill="#2B231B" font-size="18" font-family="Arial" font-weight="700">Explore</text>
  <rect x="90" y="520" width="310" height="280" rx="28" fill="#FFF9F4" stroke="#DCCAB7"/>
  <rect x="445" y="520" width="310" height="280" rx="28" fill="#FFF9F4" stroke="#DCCAB7"/>
  <rect x="800" y="520" width="310" height="280" rx="28" fill="#FFF9F4" stroke="#DCCAB7"/>
  <circle cx="245" cy="620" r="68" fill="#F0E2D0"/>
  <circle cx="245" cy="620" r="42" fill="#C18C53"/>
  <circle cx="600" cy="620" r="68" fill="#F0E2D0"/>
  <rect x="565" y="575" width="70" height="90" rx="35" fill="#C18C53"/>
  <circle cx="955" cy="620" r="68" fill="#F0E2D0"/>
  <path d="M920 650C952 585 991 585 990 650" stroke="#C18C53" stroke-width="18" stroke-linecap="round"/>
  <text x="120" y="730" fill="#3B2A1C" font-size="26" font-family="Arial" font-weight="700">Classic Collection</text>
  <text x="475" y="730" fill="#3B2A1C" font-size="26" font-family="Arial" font-weight="700">Island Atelier</text>
  <text x="830" y="730" fill="#3B2A1C" font-size="26" font-family="Arial" font-weight="700">Private Craft</text>
</svg>